<?xml version="1.0" encoding="UTF-8"?>
<svg width="24px" height="24px" viewBox="0 0 24 24" version="1.1" xmlns="http://www.w3.org/2000/svg">
    <g stroke="none" stroke-width="1" fill="none" fill-rule="evenodd">
        <path d="M12,1 C18.0751322,1 23,5.92486775 23,12 C23,18.0751322 18.0751322,23 12,23 C5.92486775,23 1,18.0751322 1,12 C1,5.92486775 5.92486775,1 12,1 Z" fill="#FF3B30"/>
        <path d="M12,5 C12.5522847,5 13,5.44771525 13,6 L13,14 C13,14.5522847 12.5522847,15 12,15 C11.4477153,15 11,14.5522847 11,14 L11,6 C11,5.44771525 11.4477153,5 12,5 Z" fill="#FFFFFF" fill-rule="nonzero"/>
        <circle fill="#FFFFFF" cx="12" cy="18" r="1.5"/>
    </g>
</svg>
